<svg width="101" height="101" viewBox="0 0 101 101" fill="none" xmlns="http://www.w3.org/2000/svg">
<circle cx="50.5" cy="50.5" r="50.5" fill="white"/>
<circle cx="50.5" cy="50.5" r="49.8" stroke="#191919" stroke-opacity="0.1" stroke-width="1.4"/>
<path d="M58.4635 28.6416L52.9834 34.1217C52.158 34.9471 51.2852 36.0322 51 37.0834C50.7149 36.0322 50.2472 34.9471 49.4218 34.1217L43.9418 28.6416C41.4196 26.1195 37.3304 26.1195 34.8083 28.6416C32.5333 30.9166 32.4021 34.5585 34.2313 37.0833L51 37.0834L31.625 37.0834C28.0582 37.0834 25.1667 39.9749 25.1667 43.5417C25.1667 45.3019 25.8709 46.8976 27.0128 48.0625H50.9875L51 48.0625L51.0125 48.0625H74.9872C76.1292 46.8976 76.8334 45.3019 76.8334 43.5417C76.8334 39.9749 73.9419 37.0834 70.375 37.0834L67.597 37.0834L68.2657 37.0833C70.0949 34.5585 69.8719 30.9166 67.5969 28.6416C65.0748 26.1195 60.9856 26.1195 58.4635 28.6416Z" fill="#232222"/>
<path d="M27.7011 52.1587L27.6931 51.8457H49.0625V75.7415H47.125C41.1066 75.7415 38.0974 75.7415 35.7237 74.7115C32.5588 73.3381 30.0442 70.7038 28.7333 67.3882C27.7501 64.9016 27.7501 61.7479 27.7501 55.444C27.7501 54.0622 27.7234 53.026 27.7011 52.1587Z" fill="#232222"/>
<path d="M66.2764 74.7115C63.9027 75.7415 60.8934 75.7415 54.875 75.7415H52.9375V51.8457H74.2354C74.25 52.7761 74.25 53.8921 74.25 55.4439C74.25 61.7489 74.25 64.9014 73.2668 67.3882C71.9558 70.7038 69.4413 73.3381 66.2764 74.7115Z" fill="#232222"/>
</svg>
